<svg width="635" height="140" viewBox="0 0 635 140" fill="none" xmlns="http://www.w3.org/2000/svg">
<rect x="0.35" y="0.35" width="139.3" height="139.3" rx="69.65" fill="url(#paint0_linear_24_73)" fill-opacity="0.3"></rect>
<rect x="0.35" y="0.35" width="139.3" height="139.3" rx="69.65" stroke="url(#paint1_linear_24_73)" stroke-width="0.7"></rect>
<path d="M54.621 93.4466H37.2778L43.7815 46.5535H61.1371L54.621 93.4466Z" fill="white"></path>
<path d="M76.2754 93.4466H58.9199L65.4359 46.5535H82.7791L76.2754 93.4466Z" fill="white"></path>
<path d="M97.9175 93.4466H80.5742L87.0779 46.5535H91.2536C98.2131 46.5535 103.571 52.7 102.61 59.5978L97.9175 93.4466Z" fill="white"></path>
<path d="M627.841 102.512V88.1022H626.4V71.4411C626.4 68.1389 625.53 65.6472 623.789 63.9661C622.108 62.285 619.616 61.4444 616.314 61.4444C614.452 61.4444 612.531 61.4745 610.55 61.5345C608.569 61.5945 606.677 61.6546 604.876 61.7146C603.075 61.7747 601.514 61.8647 600.193 61.9848V54.4198C601.514 54.2997 602.895 54.2096 604.336 54.1496C605.837 54.0295 607.368 53.9695 608.929 53.9695C610.49 53.9094 611.991 53.8794 613.432 53.8794C618.355 53.8794 622.378 54.4798 625.5 55.6806C628.622 56.8214 630.933 58.7126 632.434 61.3544C633.935 63.9961 634.686 67.5685 634.686 72.0715V102.512H627.841ZM612.081 103.773C608.479 103.773 605.356 103.172 602.715 101.971C600.133 100.711 598.122 98.9094 596.681 96.5678C595.3 94.2263 594.609 91.4044 594.609 88.1022C594.609 84.6799 595.36 81.828 596.861 79.5465C598.422 77.265 600.673 75.5538 603.615 74.4131C606.557 73.2123 610.1 72.6119 614.242 72.6119H627.301V79.0962H613.882C610.4 79.0962 607.728 79.9368 605.867 81.6179C604.006 83.299 603.075 85.4604 603.075 88.1022C603.075 90.744 604.006 92.8754 605.867 94.4965C607.728 96.1175 610.4 96.9281 613.882 96.9281C615.923 96.9281 617.875 96.5678 619.736 95.8474C621.597 95.0668 623.128 93.806 624.329 92.0648C625.59 90.2636 626.28 87.802 626.4 84.6799L628.742 88.1022C628.442 91.5245 627.601 94.4064 626.22 96.748C624.899 99.0295 623.038 100.771 620.637 101.971C618.295 103.172 615.443 103.773 612.081 103.773Z" fill="white"></path>
<path d="M566.228 103.953C559.924 103.953 555.031 102.602 551.549 99.9C548.126 97.1982 546.355 93.5058 546.235 88.8226H554.341C554.461 90.6839 555.391 92.4551 557.132 94.1362C558.934 95.7573 561.966 96.5678 566.228 96.5678C570.071 96.5678 573.013 95.8173 575.054 94.3163C577.096 92.7553 578.116 90.864 578.116 88.6425C578.116 86.6612 577.366 85.1302 575.865 84.0495C574.364 82.9087 571.932 82.1582 568.57 81.798L563.346 81.2576C558.783 80.7773 555.061 79.4264 552.179 77.2049C549.297 74.9234 547.856 71.7413 547.856 67.6585C547.856 64.5965 548.637 61.9848 550.198 59.8233C551.759 57.6018 553.92 55.9207 556.682 54.78C559.444 53.5792 562.626 52.9788 566.228 52.9788C571.632 52.9788 576.015 54.1796 579.377 56.5812C582.739 58.9828 584.481 62.5551 584.601 67.2983H576.495C576.435 65.377 575.535 63.7559 573.793 62.4351C572.112 61.0541 569.591 60.3637 566.228 60.3637C562.866 60.3637 560.314 61.0541 558.573 62.4351C556.832 63.816 555.962 65.5571 555.962 67.6585C555.962 69.4597 556.562 70.9007 557.763 71.9814C559.024 73.0621 561.065 73.7526 563.887 74.0528L569.11 74.5932C574.274 75.1335 578.417 76.5745 581.539 78.916C584.661 81.1976 586.222 84.4397 586.222 88.6425C586.222 91.6445 585.351 94.3163 583.61 96.6579C581.929 98.9394 579.587 100.741 576.585 102.061C573.583 103.322 570.131 103.953 566.228 103.953Z" fill="white"></path>
<path d="M513.529 102.512V54.4198H520.374V74.233H520.014C520.014 67.2083 521.545 62.0749 524.607 58.8327C527.729 55.5305 532.382 53.8794 538.566 53.8794H540.187V61.6246H537.125C532.322 61.6246 528.629 62.9154 526.048 65.4971C523.466 68.0188 522.175 71.6813 522.175 76.4845V102.512H513.529Z" fill="white"></path>
<path d="M478.829 104.133C474.626 104.133 470.994 103.412 467.931 101.971C464.869 100.53 462.378 98.6391 460.457 96.2976C458.535 93.896 457.094 91.2242 456.134 88.2822C455.233 85.3403 454.783 82.3383 454.783 79.2762V77.6551C454.783 74.5331 455.233 71.501 456.134 68.5591C457.094 65.6171 458.535 62.9754 460.457 60.6338C462.378 58.2322 464.809 56.3409 467.751 54.96C470.753 53.5191 474.266 52.7986 478.288 52.7986C483.512 52.7986 487.805 53.9393 491.167 56.2209C494.589 58.4423 497.111 61.3243 498.732 64.8666C500.413 68.409 501.254 72.1915 501.254 76.2142V80.0868H458.565V73.6024H494.949L492.968 77.1148C492.968 73.6925 492.428 70.7505 491.347 68.2889C490.266 65.7672 488.645 63.8159 486.484 62.435C484.322 61.0541 481.591 60.3636 478.288 60.3636C474.866 60.3636 472.014 61.1441 469.733 62.7052C467.511 64.2662 465.83 66.3976 464.689 69.0994C463.609 71.8012 463.068 74.9233 463.068 78.4657C463.068 81.888 463.609 84.98 464.689 87.7419C465.83 90.4437 467.571 92.6051 469.913 94.2262C472.254 95.7872 475.226 96.5677 478.829 96.5677C482.611 96.5677 485.673 95.7272 488.015 94.0461C490.416 92.3649 491.857 90.4136 492.338 88.1922H500.443C499.783 91.4944 498.462 94.3463 496.48 96.7479C494.499 99.1495 492.008 100.981 489.006 102.242C486.004 103.502 482.611 104.133 478.829 104.133Z" fill="white"></path>
<path d="M419.224 102.512L402.833 54.4197H411.839L427.87 102.512H419.224ZM421.386 102.512V95.6672H431.833V102.512H421.386ZM425.529 102.512L439.488 54.4197H447.954L433.724 102.512H425.529Z" fill="white"></path>
<path d="M383.595 102.512V54.4198H392.241V102.512H383.595ZM376.21 61.2643V54.4198H392.241V61.2643H376.21ZM386.027 46.6746C384.105 46.6746 382.665 46.1643 381.704 45.1436C380.803 44.1229 380.353 42.8321 380.353 41.271C380.353 39.71 380.803 38.4191 381.704 37.3984C382.665 36.3778 384.105 35.8674 386.027 35.8674C387.948 35.8674 389.359 36.3778 390.26 37.3984C391.22 38.4191 391.701 39.71 391.701 41.271C391.701 42.8321 391.22 44.1229 390.26 45.1436C389.359 46.1643 387.948 46.6746 386.027 46.6746Z" fill="white"></path>
<path d="M361.64 103.052C358.038 103.052 354.916 102.542 352.274 101.521C349.692 100.5 347.681 98.7593 346.24 96.2977C344.859 93.776 344.169 90.3838 344.169 86.1209V39.8301H352.454V87.2016C352.454 89.7834 353.145 91.7947 354.525 93.2357C355.966 94.6166 357.978 95.307 360.56 95.307H369.025V103.052H361.64ZM335.883 60.9041V54.4198H369.025V60.9041H335.883Z" fill="white"></path>
<path d="M317.679 102.512V36.7678H326.325V102.512H317.679ZM311.015 43.6124V36.7678H326.325V43.6124H311.015Z" fill="white"></path>
<path d="M277.248 103.953C271.545 103.953 267.162 102.091 264.1 98.3689C261.038 94.6465 259.507 89.2729 259.507 82.2482V54.3296H268.152V83.9593C268.152 87.7419 269.173 90.7138 271.214 92.8753C273.256 94.9767 276.018 96.0274 279.5 96.0274C283.102 96.0274 286.044 94.8866 288.326 92.6051C290.607 90.2635 291.748 87.0814 291.748 83.0587V54.3296H300.394V102.512H293.549V81.888H294.63C294.63 86.6311 294 90.6538 292.739 93.956C291.478 97.1982 289.587 99.6898 287.065 101.431C284.603 103.112 281.451 103.953 277.609 103.953H277.248Z" fill="white"></path>
<path d="M179 102.512V36.7678H190.708L210.161 80.627H211.602L230.965 36.7678H242.762V102.512H233.937V46.4042L234.567 46.5844L215.925 88.9126H205.117L186.385 46.5844L187.105 46.4042V102.512H179Z" fill="white"></path>
<defs>
<linearGradient id="paint0_linear_24_73" x1="0" y1="0" x2="136.045" y2="139.749" gradientUnits="userSpaceOnUse">
<stop stop-color="#EEF6E8"></stop>
<stop offset="1" stop-color="#8C9088"></stop>
</linearGradient>
<linearGradient id="paint1_linear_24_73" x1="70" y1="-1.41762e-06" x2="117.338" y2="164.074" gradientUnits="userSpaceOnUse">
<stop stop-color="white"></stop>
<stop offset="1" stop-color="#999999"></stop>
</linearGradient>
</defs>
</svg>